<?xml version="1.0" standalone="no"?><!DOCTYPE svg PUBLIC "-//W3C//DTD SVG 1.1//EN" "http://www.w3.org/Graphics/SVG/1.1/DTD/svg11.dtd"><svg class="icon" height="512" viewBox="0 0 1024 1024" version="1.1" xmlns="http://www.w3.org/2000/svg"><path d="M466.603 333.169c-34.796 8.792-65.656 27.443-89.441 52.793 21.521 6.796 44.251 11.99 67.947 15.484 5.531-24.152 12.713-47.077 21.494-68.275zM439.958 427.429c-28.559-4.054-55.707-10.342-80.948-18.735-17.662 26.025-28.831 56.789-31.192 90.023h105.529c0.658-24.51 2.717-48.442 6.612-71.29zM433.346 525.083h-105.528c2.36 33.236 13.53 63.999 31.192 90.024 25.241-8.393 52.388-14.683 80.947-18.738-3.895-22.847-5.953-46.779-6.611-71.288zM551.703 404.938c-6.735-27.586-15.811-53.581-27.035-76.946-4.246-0.292-8.477-0.646-12.799-0.646-4.319 0-8.55 0.354-12.797 0.646-11.225 23.367-20.3 49.361-27.035 76.946 13.11 1.141 26.389 1.828 39.833 1.828 13.442 0 26.723-0.688 39.832-1.828zM557.201 430.74c-14.83 1.3-29.93 2.063-45.33 2.063s-30.499-0.763-45.33-2.063c-3.975 21.931-6.082 44.768-6.785 67.979h104.228c-0.704-23.211-2.81-46.048-6.786-67.979zM646.577 385.961c-23.785-25.349-54.646-44.001-89.442-52.793 8.782 21.198 15.963 44.123 21.494 68.275 23.697-3.493 46.427-8.687 67.948-15.484zM466.54 593.060c14.83-1.3 29.93-2.064 45.33-2.064 15.401 0 30.5 0.765 45.331 2.064 3.975-21.93 6.081-44.768 6.785-67.976h-104.227c0.703 23.21 2.808 46.046 6.784 67.976zM590.394 498.718h105.529c-2.36-33.236-13.529-64-31.192-90.025-25.241 8.394-52.388 14.681-80.948 18.736 3.895 22.848 5.953 46.781 6.611 71.29zM511.757 90.175c-232.852 0-421.615 188.765-421.615 421.615s188.765 421.615 421.615 421.615 421.615-188.765 421.615-421.615-188.765-421.615-421.615-421.615zM511.87 722.818c-116.486 0-210.919-94.432-210.919-210.918 0-116.489 94.432-210.918 210.919-210.918 116.487 0 210.919 94.429 210.919 210.918 0 116.486-94.432 210.918-210.919 210.918zM583.782 596.369c28.56 4.054 55.708 10.342 80.948 18.738 17.662-26.025 28.832-56.789 31.192-90.024h-105.529c-0.658 24.508-2.716 48.442-6.612 71.288zM557.135 690.631c34.796-8.791 65.657-27.442 89.442-52.792-21.521-6.796-44.252-11.99-67.948-15.483-5.531 24.151-12.713 47.077-21.494 68.274zM377.163 637.839c23.785 25.35 54.646 44.001 89.441 52.793-8.782-21.197-15.963-44.123-21.494-68.274-23.696 3.492-46.426 8.686-67.947 15.483zM472.037 618.864c6.735 27.587 15.811 53.581 27.035 76.945 4.246 0.293 8.477 0.648 12.797 0.648 4.321 0 8.552-0.354 12.799-0.648 11.225-23.365 20.299-49.36 27.035-76.945-13.11-1.141-26.389-1.829-39.833-1.829-13.443-0.001-26.723 0.688-39.832 1.829z" /></svg>